# xmcd
#
# Track frame offsets: 
#        150
#        16538
#        31336
#        45711
#        60130
#        71081
#        84292
#        97882
#        110015
#        128840
#        144760
#        157727
#        169699
#        185019
#        196422
#        212463
#        228491
#        243238
#        258954
#        271105
#        283355
#        295432
#        305015
#
# Disc length: 4218 seconds
#
# Revision: 0
# Processed by: cddbd v1.5.1PL2 Copyright (c) Steve Scherf et al.
# Submitted via: ExactAudioCopy v0.95b4
#
DISCID=37107817
DTITLE=Various Artist - Country Legends
DYEAR=2003
DGENRE=Country
TTITLE0=Kenny Rogers - Lucille
TTITLE1=Olivia Newton-John - Take Me Home Country Road
TTITLE2=Glen Campbell - Rhinestone Cowboy
TTITLE3=Bellamy Brothers - If I Said You Had A Beautiful Body
TTITLE4=Linda Rondstadt - Its So Easy
TTITLE5=Dr. Hook - When You Are In Love With A Beautiful Body
TTITLE6=Don Williams - Desperately
TTITLE7=Patsy Cline - Crazy
TTITLE8=Juice Newton - Angel Of The Morning
TTITLE9=Willie Nelson - Always On My Mind
TTITLE10=Bobbie Gentry - I'll Never Fall In Love Again
TTITLE11=Tammy Wynette - Stand By Your Man
TTITLE12=Billy Ray Cyrus - Achy Breaky Heart
TTITLE13=Crystal Gayle - Don't It Make My Brown Eyes Blue
TTITLE14=Billy Jo Spears - Blanket On The Ground
TTITLE15=Joe South - Games People Play
TTITLE16=Tanya Tucker - Dealta Dawn
TTITLE17=The Band - The Night They Drove Old Dixie Down
TTITLE18=Charlie Rich - The Most Beautiful Girl
TTITLE19=Jonny Cash - I Will Walk The Line
TTITLE20=Hank Williams - Your Cheatin' Heart
TTITLE21=Ned Miller - From A Jack To A King
TTITLE22=Bobby Gentry and Glen Campbell - All I Have To Do is Dream
EXTD=
EXTT0=
EXTT1=
EXTT2=
EXTT3=
EXTT4=
EXTT5=
EXTT6=
EXTT7=
EXTT8=
EXTT9=
EXTT10=
EXTT11=
EXTT12=
EXTT13=
EXTT14=
EXTT15=
EXTT16=
EXTT17=
EXTT18=
EXTT19=
EXTT20=
EXTT21=
EXTT22=
PLAYORDER=
